<svg xmlns="http://www.w3.org/2000/svg" version="1.1" xmlns:xlink="http://www.w3.org/1999/xlink" xmlns:svgjs="http://svgjs.dev/svgjs" width="1440" height="1440" preserveAspectRatio="none" viewBox="0 0 1440 1440"><g mask="url(&quot;#SvgjsMask1008&quot;)" fill="none"><rect width="1440" height="1440" x="0" y="0" fill="#0e2a47"></rect><path d="M110.89 280.62L199.16 280.62L199.16 368.89L110.89 368.89z" stroke="rgba(66, 68, 90, 1)"></path><path d="M989.9 920.63a37.73 37.73 0 1 0-29.6-69.41z" stroke="#e73635"></path><path d="M545.97 1009.69L631.14 1009.69L631.14 1094.86L545.97 1094.86z" stroke="#e73635"></path><path d="M465.45 100.67a81.62 81.62 0 1 0-125.07 104.91z" stroke="#e73635"></path><path d="M594.71 628.4 a9.51 9.51 0 1 0 19.02 0 a9.51 9.51 0 1 0 -19.02 0z" fill="#e73635"></path><path d="M1085.54 1022.91L1180.45 1022.91L1180.45 1117.82L1085.54 1117.82z" fill="#e73635"></path><path d="M1447.69-10.61a76.34 76.34 0 1 0-92.53 121.45z" stroke="rgba(66, 68, 90, 1)"></path><path d="M693.52 1408.91a130.55 130.55 0 1 0 250.48-73.72z" stroke="#e73635"></path><path d="M799.62 661.34L896.35 661.34L896.35 709.2L799.62 709.2z" stroke="#037b0b"></path><path d="M8.33 88.16a0.35 0.35 0 1 0-0.14-0.69z" stroke="#037b0b"></path><path d="M475.1 600.12 a105.4 105.4 0 1 0 210.8 0 a105.4 105.4 0 1 0 -210.8 0z" stroke="#037b0b"></path><path d="M105.87 258.97L192.33 258.97L192.33 345.43L105.87 345.43z" fill="#d3b714"></path><path d="M1258.78 643.02L1321.49 643.02L1321.49 775.75L1258.78 775.75z" stroke="#d3b714"></path></g><defs><mask id="SvgjsMask1008"><rect width="1440" height="1440" fill="#ffffff"></rect></mask></defs></svg>